<svg enable-background="new 0 0 400 400" viewBox="0 0 400 400" xmlns="http://www.w3.org/2000/svg"><path d="m5.17 384 .55-.58c.85.61 1.65 1.24 2.4 1.87l-.59.64c-.83-.73-1.62-1.38-2.36-1.93m1.22 9.53-.82-.34c.71-1.76 1.37-3.64 1.98-5.63.24.13.5.25.76.36-.6 1.67-1.24 3.54-1.92 5.61m-.5-13.5.57-.54c.56.44 1.31 1.06 2.26 1.87l-.64.64c-.68-.66-1.41-1.32-2.19-1.97m3.25.46h2.24v-1.36h.77v1.36h4.57v-1.36h.76v1.36h2.28v.69h-2.28v1.84h-2.64v1.26h4.18v2.64h-4.21c0 .45-.02.86-.05 1.21h4.32v.69h-4.38c-.04.34-.1.75-.19 1.22h5.15v.69h-4.82c.87 1.19 2.51 1.92 4.93 2.19-.17.31-.3.57-.37.76-2.77-.49-4.52-1.41-5.26-2.76-.56 1.26-2.3 2.23-5.24 2.9-.12-.24-.26-.48-.43-.72 2.73-.55 4.38-1.34 4.96-2.38h-4.38v-.69h4.65c.1-.38.17-.79.21-1.22h-4.32v-.69h4.4c.03-.34.05-.75.05-1.21h-4.2v-2.64h4.23v-1.26h-2.69v-1.84h-2.24zm1.46 4.46v1.29h3.45c.01-.4.02-.57.01-.53v-.32-.45h-3.46zm1.55-2.59h4.57v-1.19h-4.57zm6.11 2.59h-3.42v.77c-.01.19-.01.37-.02.53h3.44z" fill="#fbfcfa"/><path d="m32.63 379.16h.82v1.98h3.54v7.89h1.46v.78h-14.37v-.78h1.46v-7.89h3.55v-1.98h.82v1.98h2.73v-1.98zm-3.49 11.48.5.73c-1.61.82-3.28 1.63-5 2.41-.13-.27-.28-.55-.44-.82 1.75-.72 3.4-1.49 4.94-2.32m-2.78-5.55h2.73v-3.18h-2.73zm0 3.95h2.73v-3.2h-2.73zm3.54-3.95h2.73v-3.18h-2.73zm0 3.95h2.73v-3.2h-2.73zm7.89 4.68c-1.84-.92-3.51-1.7-5.02-2.32l.45-.73c1.89.8 3.57 1.55 5.04 2.23zm-1.62-11.81h-2.73v3.18h2.73zm-2.73 7.13h2.73v-3.2h-2.73z" fill="#fbfcfa"/><g fill="#010102"><path d="m199.07 103.52c10.9-1.38 21.08-2.57 31.23-3.98 20.06-2.8 40.1-5.73 60.14-8.61 2.3-.33 4.66-.49 6.88-1.13 11.7-3.34 21.72.15 30.48 7.76 6.14 5.33 12.03 11.01 17.57 16.95 3.42 3.67 2.59 6-2.28 7.62-3.43 1.15-7.08 1.65-10.66 2.35-10.43 2.03-19.88 6.32-28.75 12.08-2.72 1.77-5.67 3.19-8.51 4.77-.37-.3-.73-.6-1.1-.91.87-1.98 1.61-4.02 2.63-5.92 2.66-4.98 5.71-9.76 8.11-14.86 2.61-5.53 1.43-9.96-4.05-12.62-4.35-2.11-9.48-3.89-14.19-3.73-13.6.46-27.18 1.77-40.73 3.11-13.72 1.36-27.4 3.13-41.09 4.76-1.77.21-3.5.69-5.71 1.14 0 16.03.28 31.81-.13 47.58-.18 6.75-1.74 13.48-2.78 20.2-.2 1.28-.6 2.7-1.37 3.69-1.58 2.03-3.47 3.81-5.23 5.69-1.5-2.04-3.78-3.87-4.36-6.14-1.47-5.74-2.89-11.66-3.05-17.54-.42-15.16-.14-30.33-.14-45.5 0-1.63 0-3.25 0-5.23-27.46 3.49-54.4 6.92-79.93 10.17-5.37 13.28-10.18 25.96-15.66 38.34-2.12 4.79-5.39 9.21-8.79 13.26-4.58 5.46-9.43 4.63-12.4-1.75-3.83-8.21-3.9-16.66 2.46-23.29 11.32-11.81 18.24-25.59 21.8-41.36.52-2.29 2.07-4.35 3.15-6.51.55-.12 1.09-.24 1.64-.35 1.61 2.69 3.63 5.22 4.69 8.11 1 2.73 2.39 3.47 5.11 3.37 24.61-.96 49.02-3.45 73.14-8.6 3.87-.83 5.31-2.47 4.84-6.34-1.19-9.62-2.21-19.27-3.29-28.77-11.86 0-22.28.2-32.68-.14-2.47-.08-4.89-1.93-7.31-3.01-.75-.33-1.44-.81-2.15-1.22.14-.48.27-.97.41-1.45 4.78-1 9.56-1.95 14.32-3 25.59-5.67 51.15-11.43 76.76-17.01 6.38-1.39 12.96-2.07 19 1.23 2 1.09 4.58 3.36 4.61 5.14.03 1.63-2.72 4.22-4.73 4.84-9.02 2.76-18.17 5.15-27.36 7.32-8.68 2.05-17.45 3.67-26.17 5.48.02.43-.06.96.06 1.01 8.84 3.96 7.11 11.4 6.32 18.67-.47 4.55-.49 9.17-.75 14.33z"/><path d="m230.07 212.25c12.11-2.75 23.38-5.26 34.62-7.88 8.07-1.88 16.01-4.7 24.49-2.53.48.12 1.09.02 1.46.28 2.23 1.55 4.41 3.17 6.6 4.76-1.97 1.75-3.68 4.49-5.95 5.09-11.54 3.01-23.15 5.83-34.87 7.99-8.45 1.56-17.11 1.97-26.01 2.93v29.88c11.07-2.2 21.71-4.47 32.41-6.39 6.34-1.13 12.78-1.73 19.19-2.51.98-.12 2.15-.21 2.96.2 2.3 1.17 4.46 2.61 6.68 3.95-1.33 2.16-2.23 4.82-4.07 6.37-6.82 5.75-15.3 7.23-23.81 7.57-10.93.43-21.9.11-33.27.11v35.41c9.46-.68 18.9-.88 28.2-2.15 17.26-2.36 34.4-5.63 51.67-7.94 8.9-1.19 17.31.82 23.4 8.25 3.61 4.4 2.67 7.6-2.95 8.34-8.54 1.13-17.18 1.67-25.8 2.01-24.11.94-48.23 1.64-72.34 2.45-.65.02-1.29.19-2.26.34-.45 8.82-.43 17.61-1.47 26.27-1.1 9.19-2.88 18.34-5.06 27.34-.87 3.58-2.31 9.05-6.93 8.35-2.43-.37-4.89-5.28-6.04-8.59-4.19-12.09-5.37-24.19-2.29-37.14 2.82-11.85 3.7-24.31 4.11-36.54.65-18.93.55-37.91.05-56.86-.33-12.45-1.72-24.89-8.71-35.9-2.16-3.4-.59-6.1 3.58-5.51 6.18.88 12.3 2.57 18.27 4.46 3.02.96 4.48 3.67 4.19 7.17-.25 2.94-.05 5.92-.05 10.42z"/><path d="m154.91 268.37c-10.97 2.29-20.87 4.2-30.68 6.45-7.33 1.68-14.63 3.68-22.06 1.01-2.99-1.07-5.69-2.96-8.37-5.47 20.41-4.74 40.1-12.1 61.74-9.17 0-9.66 0-18.7 0-28.27-8.76 1.6-17.33 3.35-25.96 4.7-8.68 1.36-17.39 2.88-26.13 3.28-6.48.3-12.75-1.68-17.68-8.7 12.25-1.94 23.73-3.53 35.12-5.62 11.56-2.13 23.03-2.22 35.95 1-1.21-7.09-2.24-13.04-3.22-19.01-.2-1.23-.17-2.5-.24-3.74 1.23-.03 2.53-.33 3.68-.04 2.25.55 4.47 1.29 6.6 2.2 9.76 4.18 12.88 8.42 9.11 18.93-1.76 4.9-2.24 10.4-2.52 15.66-1.55 29.55-2.47 59.14-4.47 88.66-.7 10.32-3.69 20.5-6.02 30.66-.5 2.17-2.67 3.96-4.07 5.93-1.97-1.6-4.49-2.86-5.78-4.89-2.3-3.62-4.05-7.63-5.65-11.63-1.8-4.48-1.08-8.51.92-13.25 2.97-7.06 3.98-14.96 5.67-22.54.49-2.21.5-4.52.83-7.75-11.5 2.72-22.37 5.39-33.29 7.86-11.64 2.63-23.26 5.44-35.01 7.5-8.38 1.47-15.52-2.6-22.21-7.16-1-.68-1.64-1.87-3.35-3.91 5.93-.77 10.75-1.29 15.54-2.04 20.47-3.2 40.93-6.44 61.39-9.72 4.91-.79 9.84-1.55 14.65-2.77 1.53-.39 3.71-2.13 3.85-3.43.79-7.74 1.1-15.52 1.66-24.73z"/><path d="m240.56 161.32c4.74.8 10.18 1.4 15.45 2.71 5.01 1.25 9.11 4.15 10.69 9.46 2.06 6.93-1.71 11.42-8.53 9.2-9.39-3.05-18.43-7.2-27.58-10.98-1.17-.49-2.18-1.52-3.1-2.45-3.08-3.13-2.67-5.26 1.5-6.27 3.51-.86 7.18-1.07 11.57-1.67z"/><path d="m129.12 173.29c4.9.79 9.84 1.42 14.7 2.4 6.78 1.36 9.93 6.25 11.17 12.55.86 4.38-1.83 7.43-6.19 6.65-9.89-1.78-19.35-4.84-27.28-11.39-1.12-.93-2.17-2.11-2.85-3.38-2.07-3.85-.92-6 3.41-6.37 2.31-.19 4.65-.03 6.98-.03.01-.15.04-.29.06-.43z"/><path d="m223.08 132.18c2.38-1.37 3.8-2.7 5.42-3.03 9.37-1.93 18.76-2.09 27.95.91 5.08 1.66 8.46 4.96 9.1 10.63.41 3.59-1.13 5.41-4.56 5.58-2.14.11-4.45.25-6.41-.4-8.76-2.93-17.47-6.04-26.1-9.35-1.8-.7-3.18-2.51-5.4-4.34z"/><path d="m136.08 139.38c3.94.76 8.73 1.36 13.33 2.64 5.76 1.6 8.54 6.02 9.35 11.75.57 3.99-1.56 6.77-5.62 6.21-10.88-1.5-20.92-5.33-29.03-13.02-3.22-3.05-2.57-5.08 1.73-6.22 3.01-.79 6.21-.86 10.24-1.36z"/></g></svg>